<?xml version="1.0" encoding="utf-8"?>
<!-- Generator: Adobe Illustrator 26.3.1, SVG Export Plug-In . SVG Version: 6.00 Build 0)  -->
<svg version="1.1" id="圖層_1" xmlns="http://www.w3.org/2000/svg" xmlns:xlink="http://www.w3.org/1999/xlink" x="0px" y="0px"
	 viewBox="0 0 125 35" style="enable-background:new 0 0 125 35;" xml:space="preserve">
<style type="text/css">
	.st0{fill:#EA0029;}
</style>
<g>
	<g>
		<path id="XMLID_99_" class="st0" d="M21.7,19.3L0.9,33l14.2,0c1.6-1.4,7.1-5.5,11.6-8.2L21.7,19.3z"/>
		<path id="XMLID_98_" class="st0" d="M45,33.1L45,33.1L19.7,5L9.4,5L8.8,5l17.8,19.9c0,0,0,0,0,0l5.6,6.3l1.7,1.9l4.3,0L45,33.1
			L45,33.1z"/>
		<path id="XMLID_95_" class="st0" d="M58,33.2l-9.2,0l11.6-22.8l19.8,0.1c3,0,4.8,0.6,5.3,1.7c0.5,1.1,0.3,2.8-0.8,4.9l-0.5,1
			l-0.4,0.8c-1.1,2.1-2.5,3.7-4.1,4.9c-1.7,1.1-4,1.7-7,1.7l-10.6,0L58,33.2z M71.3,20.2c1.8,0,3.9-0.3,4.7-0.9
			c0.8-0.6,2.1-2.3,1.8-2.8c-0.2-0.6-1.2-0.9-3-0.9l-4.3,0l-4.1,0l-2.3,4.6L71.3,20.2z"/>
		<path id="XMLID_94_" class="st0" d="M30.7,13.3l4.4,4.9C57.7,1.7,70.5,4.5,123.3,3.5l0.7-1.4C68.1,2.7,54.2-0.7,30.7,13.3z"/>
		<path class="st0" d="M101.4,20.7l-1.8,3.8l5.9,0l-1.8,3.6l-7.3,0c-1.6,0-2.6-0.3-2.8-1c-0.2-0.6-0.1-1.5,0.5-2.7
			c0,0,4.1-7.1,4.8-7.9c0.7-0.7,2.1-0.9,3.8-0.9l14.4,0l2.6-5.2l-9.1,0l-9.9,0c-3,0-5.3,0.5-7,1.6c-1.7,1.1-3.1,2.7-4.2,4.9
			l-4.9,9.7c-1.1,2.2-1.4,3.8-0.8,4.9c0.6,1.1,2.4,1.6,5.4,1.7l9.9,0l9.1,0l6.4-12.7L101.4,20.7z"/>
		<path class="st0" d="M101.4,20.7l-1.8,3.8l5.9,0l-1.8,3.6l-7.3,0c-1.6,0-2.6-0.3-2.8-1c-0.2-0.6-0.1-1.5,0.5-2.7
			c0,0,4.1-7.1,4.8-7.9c0.7-0.7,2.1-0.9,3.8-0.9l14.4,0l2.6-5.2l-9.1,0l-9.9,0c-3,0-5.3,0.5-7,1.6c-1.7,1.1-3.1,2.7-4.2,4.9
			l-4.9,9.7c-1.1,2.2-1.4,3.8-0.8,4.9c0.6,1.1,2.4,1.6,5.4,1.7l9.9,0l9.1,0l6.4-12.7L101.4,20.7z"/>
	</g>
	<g>
		<path id="XMLID_93_" class="st0" d="M21.7,19.3L0.9,33l14.2,0c1.6-1.4,7.1-5.5,11.6-8.2L21.7,19.3z"/>
		<path id="XMLID_92_" class="st0" d="M45,33.1L45,33.1L19.7,5L9.4,5L8.8,5l17.8,19.9c0,0,0,0,0,0l5.6,6.3l1.7,1.9l4.3,0L45,33.1
			L45,33.1z"/>
		<path id="XMLID_89_" class="st0" d="M58,33.2l-9.2,0l11.6-22.8l19.8,0.1c3,0,4.8,0.6,5.3,1.7c0.5,1.1,0.3,2.8-0.8,4.9l-0.5,1
			l-0.4,0.8c-1.1,2.1-2.5,3.7-4.1,4.9c-1.7,1.1-4,1.7-7,1.7l-10.6,0L58,33.2z M71.3,20.2c1.8,0,3.9-0.3,4.7-0.9
			c0.8-0.6,2.1-2.3,1.8-2.8c-0.2-0.6-1.2-0.9-3-0.9l-4.3,0l-4.1,0l-2.3,4.6L71.3,20.2z"/>
		<path id="XMLID_88_" class="st0" d="M30.7,13.3l4.4,4.9C57.7,1.7,70.5,4.5,123.3,3.5l0.7-1.4C68.1,2.7,54.2-0.7,30.7,13.3z"/>
		<path class="st0" d="M101.4,20.7l-1.8,3.8l5.9,0l-1.8,3.6l-7.3,0c-1.6,0-2.6-0.3-2.8-1c-0.2-0.6-0.1-1.5,0.5-2.7
			c0,0,4.1-7.1,4.8-7.9c0.7-0.7,2.1-0.9,3.8-0.9l14.4,0l2.6-5.2l-9.1,0l-9.9,0c-3,0-5.3,0.5-7,1.6c-1.7,1.1-3.1,2.7-4.2,4.9
			l-4.9,9.7c-1.1,2.2-1.4,3.8-0.8,4.9c0.6,1.1,2.4,1.6,5.4,1.7l9.9,0l9.1,0l6.4-12.7L101.4,20.7z"/>
		<path class="st0" d="M101.4,20.7l-1.8,3.8l5.9,0l-1.8,3.6l-7.3,0c-1.6,0-2.6-0.3-2.8-1c-0.2-0.6-0.1-1.5,0.5-2.7
			c0,0,4.1-7.1,4.8-7.9c0.7-0.7,2.1-0.9,3.8-0.9l14.4,0l2.6-5.2l-9.1,0l-9.9,0c-3,0-5.3,0.5-7,1.6c-1.7,1.1-3.1,2.7-4.2,4.9
			l-4.9,9.7c-1.1,2.2-1.4,3.8-0.8,4.9c0.6,1.1,2.4,1.6,5.4,1.7l9.9,0l9.1,0l6.4-12.7L101.4,20.7z"/>
	</g>
	<path id="XMLID_87_" class="st0" d="M21.7,19.3L0.9,33l14.2,0c1.6-1.4,7.1-5.5,11.6-8.2L21.7,19.3z"/>
	<path id="XMLID_86_" class="st0" d="M45,33.1L45,33.1L19.7,5L9.4,5L8.8,5l17.8,19.9c0,0,0,0,0,0l5.6,6.3l1.7,1.9l4.3,0L45,33.1
		L45,33.1z"/>
	<path id="XMLID_83_" class="st0" d="M58,33.2l-9.2,0l11.6-22.8l19.8,0.1c3,0,4.8,0.6,5.3,1.7c0.5,1.1,0.3,2.8-0.8,4.9l-0.5,1
		l-0.4,0.8c-1.1,2.1-2.5,3.7-4.1,4.9c-1.7,1.1-4,1.7-7,1.7l-10.6,0L58,33.2z M71.3,20.2c1.8,0,3.9-0.3,4.7-0.9
		c0.8-0.6,2.1-2.3,1.8-2.8c-0.2-0.6-1.2-0.9-3-0.9l-4.3,0l-4.1,0l-2.3,4.6L71.3,20.2z"/>
	<path id="XMLID_82_" class="st0" d="M30.7,13.3l4.4,4.9C57.7,1.7,70.5,4.5,123.3,3.5l0.7-1.4C68.1,2.7,54.2-0.7,30.7,13.3z"/>
	<path id="XMLID_81_" class="st0" d="M21.7,19.3L0.9,33l14.2,0c1.6-1.4,7.1-5.5,11.6-8.2L21.7,19.3z"/>
	<path id="XMLID_80_" class="st0" d="M45,33.1L45,33.1L19.7,5L9.4,5L8.8,5l17.8,19.9c0,0,0,0,0,0l5.6,6.3l1.7,1.9l4.3,0L45,33.1
		L45,33.1z"/>
	<path id="XMLID_77_" class="st0" d="M58,33.2l-9.2,0l11.6-22.8l19.8,0.1c3,0,4.8,0.6,5.3,1.7c0.5,1.1,0.3,2.8-0.8,4.9l-0.5,1
		l-0.4,0.8c-1.1,2.1-2.5,3.7-4.1,4.9c-1.7,1.1-4,1.7-7,1.7l-10.6,0L58,33.2z M71.3,20.2c1.8,0,3.9-0.3,4.7-0.9
		c0.8-0.6,2.1-2.3,1.8-2.8c-0.2-0.6-1.2-0.9-3-0.9l-4.3,0l-4.1,0l-2.3,4.6L71.3,20.2z"/>
	<path id="XMLID_76_" class="st0" d="M30.7,13.3l4.4,4.9C57.7,1.7,70.5,4.5,123.3,3.5l0.7-1.4C68.1,2.7,54.2-0.7,30.7,13.3z"/>
</g>
</svg>
